<svg xmlns="http://www.w3.org/2000/svg" id="Capa_1" height="512" viewBox="0 0 512 512" width="512"><g><path d="m415.01 288.387h-318.019c-49.424 0-89.49-40.066-89.49-89.49v-8.975c0-49.424 40.066-89.49 89.49-89.49h318.019c49.424 0 89.49 40.066 89.49 89.49v8.975c0 49.424-40.066 89.49-89.49 89.49z" fill="#544f57"></path><path d="m415.01 100.431h-27.5c49.424 0 89.49 40.066 89.49 89.49v8.975c0 49.424-40.066 89.49-89.49 89.49h27.5c49.424 0 89.491-40.066 89.491-89.49v-8.975c-.001-49.424-40.067-89.49-89.491-89.49z" fill="#454045"></path><path d="m436.876 490.518h-361.752c-37.348 0-67.624-30.276-67.624-67.624v-132.388c0-10.622 8.611-19.232 19.232-19.232h458.536c10.622 0 19.232 8.611 19.232 19.232v132.388c0 37.348-30.276 67.624-67.624 67.624z" fill="#f6f1f1"></path><path d="m485.268 271.274h-24.5c10.622 0 19.232 8.61 19.232 19.232v132.387c0 37.348-30.276 67.624-67.624 67.624h24.5c37.348 0 67.624-30.276 67.624-67.624v-132.387c0-10.621-8.61-19.232-19.232-19.232z" fill="#efe7e4"></path><path d="m209.64 128.178-22.192 4.11c-8.283 1.534-15.927-4.824-15.927-13.248l-19.376-14.436v-40.91l19.376-12.851c0-8.424 7.644-14.782 15.927-13.248l22.192 4.11c15.276 2.827 26.36 16.151 26.36 31.688v23.095c0 15.536-11.084 28.861-26.36 31.69z" fill="#afaab4"></path><path d="m209.64 41.703-22.192-4.11c-3.53-.654-6.937.135-9.693 1.897l11.948 2.213c15.277 2.829 26.36 16.154 26.36 31.69v23.095c0 15.536-11.084 28.861-26.36 31.69l-11.948 2.213c2.755 1.762 6.163 2.551 9.693 1.897l22.192-4.11c15.276-2.829 26.36-16.154 26.36-31.69v-23.095c0-15.537-11.084-28.861-26.36-31.69z" fill="#a298a5"></path><path d="m133.281 226.205-9.82 5.669c-7.826 4.518-17.834 1.837-22.352-5.989l-66.866-115.815 38.161-22.032 66.866 115.816c4.519 7.825 1.837 17.832-5.989 22.351z" fill="#afaab4"></path><path d="m72.404 88.037-38.161 22.033 33.028 57.206c3.504.672 7.15.929 10.886.697 14.307-.887 25.811-2.728 37.323-5.326z" fill="#a298a5"></path><path d="m145.901 135.023c-24.709 6.836-41.517 11.661-67.745 13.287-24.903 1.544-45.958-18.204-45.958-43.155v-40.43c0-24.951 21.055-44.699 45.957-43.155 26.228 1.626 43.036 6.451 67.745 13.287 15.131 4.186 25.619 17.932 25.619 33.631v32.904c.002 15.699-10.487 29.446-25.618 33.631z" fill="#f6f1f1"></path><path d="m145.902 34.857c-24.709-6.836-41.517-11.661-67.745-13.287-3.711-.23-7.333.023-10.815.685 21.515 2.075 37.205 6.549 59.084 12.602 15.131 4.186 25.619 17.932 25.619 33.631v32.904c0 15.699-10.489 29.446-25.619 33.631-21.879 6.053-37.569 10.527-59.084 12.602 3.483.662 7.105.915 10.816.685 26.227-1.626 43.036-6.451 67.745-13.287 15.131-4.186 25.619-17.932 25.619-33.631v-32.904c-.001-15.699-10.49-29.445-25.62-33.631z" fill="#efe7e4"></path><path d="m302.361 128.178 22.192 4.11c8.283 1.534 15.927-4.824 15.927-13.248l19.376-14.436v-40.91l-19.376-12.853c0-8.424-7.644-14.782-15.927-13.248l-22.192 4.11c-15.277 2.829-26.361 16.153-26.361 31.69v23.095c0 15.536 11.084 28.861 26.361 31.69z" fill="#afaab4"></path><path d="m340.48 50.841c0-8.424-7.644-14.782-15.927-13.248l-13.14 2.433c3.284 2.434 5.469 6.323 5.469 10.815v68.198c0 4.492-2.185 8.381-5.469 10.815l13.14 2.433c8.283 1.534 15.927-4.824 15.927-13.248l19.376-14.436v-40.91z" fill="#a298a5"></path><path d="m378.72 226.205 9.82 5.669c7.826 4.518 17.834 1.837 22.352-5.989l66.866-115.816-38.161-22.032-66.867 115.816c-4.518 7.826-1.837 17.833 5.99 22.352z" fill="#afaab4"></path><path d="m439.596 88.037 38.161 22.032-33.028 57.206c-3.504.672-7.15.929-10.886.697-14.307-.887-25.811-2.728-37.323-5.326z" fill="#a298a5"></path><path d="m366.099 135.023c24.709 6.836 41.517 11.661 67.745 13.287 24.903 1.544 45.958-18.204 45.958-43.155v-40.43c0-24.951-21.055-44.699-45.957-43.155-26.228 1.626-43.036 6.451-67.745 13.287-15.131 4.186-25.619 17.932-25.619 33.631v32.904c-.001 15.699 10.487 29.446 25.618 33.631z" fill="#f6f1f1"></path><path d="m433.844 21.57c-2.892.179-5.654.404-8.341.66 19.96 3.726 35.285 21.212 35.285 42.495v40.431c0 21.283-15.324 38.77-35.285 42.495 2.687.255 5.448.48 8.341.66 24.903 1.544 45.958-18.204 45.958-43.155v-40.431c-.001-24.951-21.055-44.699-45.958-43.155z" fill="#efe7e4"></path><path d="m312.151 302.844h-112.302c-3.34 0-6.385-1.915-7.831-4.925l-12.803-26.644h153.571l-12.803 26.644c-1.447 3.01-4.491 4.925-7.832 4.925z" fill="#afaab4"></path><g><path d="m512 189.922c0-25.315-10.001-49.716-27.604-67.762 1.903-5.375 2.906-11.098 2.906-17.004v-40.432c0-14.146-5.676-27.271-15.982-36.957-10.321-9.7-23.795-14.566-37.939-13.683-26.235 1.626-43.383 6.374-67.114 12.944l-2.167.6c-7.643 2.114-14.319 6.276-19.512 11.781-1.134-1.742-2.529-3.328-4.168-4.692-4.803-3.997-11.081-5.637-17.232-4.5l-22.191 4.11c-18.831 3.487-32.497 19.916-32.497 39.065v23.096c0 19.148 13.666 35.577 32.494 39.064h.001l22.191 4.109c1.28.236 2.564.354 3.842.354 4.854 0 9.585-1.688 13.39-4.853 1.64-1.364 3.034-2.95 4.169-4.692 5.193 5.505 11.869 9.667 19.513 11.781l2.164.599c10.394 2.878 19.526 5.406 28.71 7.476l-28.739 49.776c-6.579 11.396-2.661 26.019 8.734 32.598l9.819 5.669c3.677 2.123 7.758 3.208 11.893 3.207 2.072 0 4.159-.272 6.215-.823 6.157-1.649 11.304-5.598 14.49-11.118l5.728-9.921c2.071-3.587.842-8.174-2.745-10.245-3.59-2.071-8.175-.843-10.245 2.745l-5.728 9.921c-2.443 4.232-7.878 5.688-12.107 3.244l-9.819-5.669c-2.05-1.184-3.517-3.095-4.13-5.382-.612-2.287-.298-4.676.886-6.726l31.335-54.273c7.023 1.11 14.457 1.949 22.819 2.467 1.088.067 2.172.102 3.25.102 2.102 0 4.181-.141 6.235-.392l-17.693 30.645c-2.071 3.587-.842 8.174 2.745 10.245 1.181.682 2.471 1.006 3.743 1.006 2.592 0 5.113-1.345 6.502-3.751l26.605-46.081c.069-.12.125-.243.187-.364 2.227-1.513 4.359-3.205 6.365-5.091 2.012-1.892 3.842-3.918 5.494-6.054 12.917 14.847 20.187 34.021 20.187 53.861v8.975c0 25.324-11.864 49.396-31.853 64.878h-418.293c-19.99-15.483-31.854-39.555-31.854-64.879v-8.975c0-19.84 7.27-39.014 20.188-53.862 1.652 2.136 3.481 4.163 5.494 6.054 1.996 1.876 4.116 3.56 6.33 5.067.007.012.012.024.019.036l47.584 82.418c4.415 7.646 12.451 11.927 20.705 11.926 4.045 0 8.144-1.028 11.892-3.192l9.82-5.669c11.396-6.579 15.313-21.202 8.734-32.598l-28.739-49.776c9.184-2.069 18.314-4.597 28.708-7.475l2.167-.6c7.644-2.114 14.32-6.276 19.512-11.781 1.134 1.742 2.529 3.328 4.169 4.692 3.805 3.165 8.535 4.853 13.391 4.853 1.276 0 2.563-.117 3.841-.354l22.191-4.109h.001c18.828-3.487 32.494-19.916 32.494-39.064v-23.095c0-19.149-13.666-35.578-32.494-39.064l-22.192-4.11c-6.146-1.135-12.427.503-17.232 4.5-1.639 1.364-3.034 2.95-4.168 4.692-5.192-5.505-11.869-9.667-19.512-11.781l-2.167-.6c-23.731-6.57-40.879-11.318-67.116-12.944-.282-.018-.563-.027-.844-.034l-.262-.009c-4.15-.171-7.629 3.054-7.796 7.192-.166 4.139 3.054 7.629 7.192 7.796l.455.015c.109.003.22.004.328.011 24.671 1.53 40.333 5.866 64.04 12.43l2.169.601c11.846 3.276 20.119 14.134 20.119 26.402v32.904c0 12.269-8.273 23.126-20.119 26.402l-2.169.601c-23.707 6.563-39.369 10.9-64.04 12.43-20.462 1.26-37.993-14.88-37.993-35.67v-40.432c0-10.784 4.811-20.884 13.197-27.709 3.213-2.615 3.697-7.339 1.083-10.552-2.614-3.21-7.337-3.698-10.552-1.083-11.902 9.687-18.729 24.027-18.729 39.344v40.431c0 5.906 1.003 11.629 2.906 17.003-17.604 18.047-27.605 42.449-27.605 67.764v8.975c0 24.118 9.096 47.276 24.979 64.942-13.925.906-24.979 12.517-24.979 26.668v132.387c0 41.424 33.7 75.124 75.124 75.124h150.89c4.143 0 7.5-3.357 7.5-7.5s-3.357-7.5-7.5-7.5h-150.89c-33.152-.001-60.124-26.972-60.124-60.125v-132.386c0-6.47 5.263-11.732 11.732-11.732h147.766l10.76 22.394c2.68 5.574 8.407 9.176 14.592 9.176h112.302c6.186 0 11.913-3.603 14.591-9.177l10.76-22.393h147.765c6.47 0 11.732 5.263 11.732 11.732v132.387c0 33.152-26.972 60.124-60.124 60.124h-180.876c-4.143 0-7.5 3.357-7.5 7.5s3.357 7.5 7.5 7.5h180.876c41.424 0 75.124-33.7 75.124-75.124v-132.387c0-14.15-11.053-25.761-24.979-26.668 15.883-17.667 24.979-40.824 24.979-64.943zm-179.021-70.883c0 2.438-1.35 3.924-2.153 4.593-.805.669-2.505 1.727-4.908 1.28l-22.192-4.109h.001c-11.721-2.17-20.227-12.396-20.227-24.314v-23.097c0-11.919 8.506-22.146 20.227-24.314l22.191-4.11c2.404-.443 4.104.612 4.908 1.281.805.669 2.153 2.155 2.153 4.593zm101.329 21.786c-24.672-1.53-40.334-5.866-64.041-12.431l-2.167-.6c-11.847-3.277-20.12-14.134-20.12-26.402v-32.904c0-12.269 8.273-23.125 20.119-26.402l2.169-.601c23.707-6.563 39.369-10.9 64.04-12.43.768-.047 1.531-.071 2.292-.071 9.126 0 17.734 3.403 24.446 9.713 7.259 6.822 11.256 16.065 11.256 26.027v40.431c0 20.596-17.34 36.947-37.994 35.67zm-255.287-89.983c0-2.438 1.35-3.923 2.153-4.593.672-.559 1.973-1.388 3.779-1.388.357 0 .734.033 1.129.106l22.192 4.11c11.72 2.169 20.226 12.396 20.226 24.314v23.096c0 11.919-8.506 22.145-20.227 24.314h.001l-22.192 4.109c-2.394.443-4.104-.612-4.908-1.281s-2.153-2.155-2.153-4.592zm-77.581 102.487 31.335 54.274c2.443 4.232.988 9.664-3.244 12.107l-9.82 5.669c-2.051 1.184-4.438 1.496-6.726.886-2.286-.612-4.197-2.079-5.381-4.129l-38.469-66.63c9.459 1.157 26.417-1.246 32.305-2.177zm211.782 141.342c-.196.409-.616.673-1.07.673h-112.302c-.455 0-.876-.265-1.072-.673l-7.638-15.896h129.722z"></path><path d="m71.711 68.32h21.345c4.143 0 7.5-3.357 7.5-7.5s-3.357-7.5-7.5-7.5h-21.345c-4.143 0-7.5 3.357-7.5 7.5s3.357 7.5 7.5 7.5z"></path><path d="m440.29 53.32h-21.345c-4.143 0-7.5 3.357-7.5 7.5s3.357 7.5 7.5 7.5h21.345c4.143 0 7.5-3.357 7.5-7.5s-3.357-7.5-7.5-7.5z"></path><path d="m288.762 366.8c0-4.143-3.357-7.5-7.5-7.5h-50.522c-4.143 0-7.5 3.357-7.5 7.5s3.357 7.5 7.5 7.5h50.522c4.142 0 7.5-3.358 7.5-7.5z"></path></g></g></svg>